<svg width="35" height="35" viewBox="0 0 35 35" fill="none" xmlns="http://www.w3.org/2000/svg">
<path fill-rule="evenodd" clip-rule="evenodd" d="M1.94444 0H8.75C9.81944 0 10.6944 0.875 10.6944 1.94444C10.6944 4.375 11.0833 6.70833 11.8028 8.88611C12.0167 9.56667 11.8611 10.325 11.3167 10.8694L7.03889 15.1472C9.83889 20.65 14.35 25.1417 19.8528 27.9611L24.1306 23.6833C24.5194 23.3139 25.0056 23.1194 25.5111 23.1194C25.7056 23.1194 25.9194 23.1389 26.1139 23.2167C28.2917 23.9361 30.6444 24.325 33.0556 24.325C34.125 24.325 35 25.2 35 26.2694V33.0556C35 34.125 34.125 35 33.0556 35C14.7972 35 0 20.2028 0 1.94444C0 0.875 0.875 0 1.94444 0ZM6.88333 3.88889C7 5.61944 7.29167 7.31111 7.75833 8.925L5.425 11.2583C4.62778 8.925 4.12222 6.45556 3.94722 3.88889H6.88333ZM26.0556 27.2611C27.7083 27.7278 29.4 28.0195 31.1111 28.1361V31.0334C28.5444 30.8584 26.075 30.3528 23.7222 29.575L26.0556 27.2611Z" fill="black" fill-opacity="0.54"/>
</svg>
